<svg height='100px' width='100px'  fill="#FFB468" xmlns="http://www.w3.org/2000/svg" xmlns:xlink="http://www.w3.org/1999/xlink" version="1.1" x="0px" y="0px" viewBox="0 0 208 176" enable-background="new 0 0 208 176" xml:space="preserve"><g><path d="M87.8994141,54.2880859c0,2.1152344,1.7192383,3.8349609,3.8344727,3.8349609   c2.112793,0,3.8300781-1.7197266,3.8300781-3.8349609c0-2.112793-1.7172852-3.8320313-3.8300781-3.8320313   C89.6186523,50.4560547,87.8994141,52.175293,87.8994141,54.2880859z"></path><path d="M112.6464844,54.2880859c0,2.1152344,1.7197266,3.8349609,3.8349609,3.8349609   c2.1132813,0,3.8300781-1.7197266,3.8300781-3.8349609c0-2.112793-1.7167969-3.8320313-3.8300781-3.8320313   C114.3662109,50.4560547,112.6464844,52.175293,112.6464844,54.2880859z"></path><path d="M165.0244141,103.3486328c0-2.1152344-1.7177734-3.8349609-3.8300781-3.8349609   c-2.1152344,0-3.8349609,1.7197266-3.8349609,3.8349609c0,2.1132813,1.7197266,3.8320313,3.8349609,3.8320313   C163.3066406,107.1806641,165.0244141,105.4619141,165.0244141,103.3486328z"></path><path d="M184.3330078,95.21875h-12.6708984l-7.8925781-10.8774414h-9.8535156   c-0.5361328,2.8706055-3.0498047,5.0541992-6.0742188,5.0541992c-3.4130859,0-6.1914063-2.7773438-6.1914063-6.1914063   c0-3.4106445,2.7783203-6.1865234,6.1914063-6.1865234c2.9951172,0,5.4970703,2.1381836,6.0654297,4.9667969h11.0644531   l7.8916016,10.8779297h11.1064453c-3.7841797-18.4018555-19.6630859-32.3408203-38.9560547-33.2641602   c-3.0683594-14.4267578-13.5761719-26.0688477-27.3125-30.7944336v19.4194336   c2.8291016,0.5688477,4.9677734,3.0708008,4.9677734,6.0649414c0,3.4135742-2.7763672,6.1918945-6.1875,6.1918945   c-3.4130859,0-6.1914063-2.7783203-6.1914063-6.1918945c0-3.0244141,2.1845703-5.5375977,5.0546875-6.0742188V28.0722656   C111.7636719,27.0732422,108.0048828,26.5,104.1054688,26.5c-3.8666992,0-7.5957031,0.5664063-11.1518555,1.5488281v20.1743164   c2.8291016,0.5688477,4.9672852,3.0708008,4.9672852,6.0649414c0,3.4135742-2.7758789,6.1918945-6.1870117,6.1918945   c-3.4135742,0-6.1914063-2.7783203-6.1914063-6.1918945c0-3.0244141,2.184082-5.5375977,5.0541992-6.0742188V28.7714844   c-13.7802734,4.7050781-24.3242188,16.3701172-27.3994141,30.8266602   c-19.2924805,0.9233398-35.171875,14.8623047-38.9560547,33.2641602h11.105957l7.8925781-10.8779297h11.0639648   c0.5683594-2.8286133,3.0703125-4.9667969,6.0649414-4.9667969c3.4135742,0,6.1918945,2.7758789,6.1918945,6.1865234   c0,3.4140625-2.7783203,6.1914063-6.1918945,6.1914063c-3.0244141,0-5.5375977-2.1835938-6.0737305-5.0541992h-9.8535156   L36.5488281,95.21875H23.8779297c-0.2949219,2.0009766-0.4970703,4.0302734-0.4970703,6.1132813   c0,23.1044922,18.730957,41.8359375,41.8354492,41.8359375c0.2094727,0,0.409668-0.0273438,0.6191406-0.0322266v-14.765625   l-10.8735352-7.8925781v-11.0634766c-2.8310547-0.5664063-4.9716797-3.0683594-4.9716797-6.0654297   c0-3.4130859,2.7783203-6.1914063,6.1918945-6.1914063c3.4111328,0,6.1870117,2.7783203,6.1870117,6.1914063   c0,3.0244141-2.1821289,5.5380859-5.0498047,6.0742188v9.8535156l10.8730469,7.8925781v15.8496094   c16.3808594-1.1582031,30.1357422-11.7158203,35.9130859-26.3359375c6.125,15.5019531,21.2099609,26.4853516,38.8896484,26.4853516   c2.1054688,0,4.1611328-0.2070313,6.1845703-0.5068359v-15.4921875l10.8779297-7.8925781v-9.8535156   c-2.8701172-0.5361328-5.0546875-3.0498047-5.0546875-6.0742188c0-3.4130859,2.7783203-6.1914063,6.1914063-6.1914063   c3.4111328,0,6.1865234,2.7783203,6.1865234,6.1914063c0,2.9951172-2.1376953,5.4960938-4.9667969,6.0654297v11.0634766   l-10.8779297,7.8925781v13.9189453c19.0078125-3.9433594,33.2939453-20.7802734,33.2939453-40.9570313   C184.8300781,99.2490234,184.6279297,97.2197266,184.3330078,95.21875z M97.9394531,113.0273438H78.9873047V86.5810547h-8.3759766   l17.8520508-17.8520508l14.3554688,14.3554688l1.737793,1.737793l1.7587891,1.7587891h-1.9912109h-6.3847656V113.0273438z    M119.7480469,113.0273438l-12.7490234-12.7490234l-5.1030273-5.1025391h4.6538086h3.7216797V75.3095703v-6.5805664h6.5419922   h12.4101563v26.4467773h8.3759766L119.7480469,113.0273438z"></path><path d="M144.0078125,83.2041016c0,2.1157227,1.71875,3.8349609,3.8339844,3.8349609   c2.1132813,0,3.8330078-1.7192383,3.8330078-3.8349609c0-2.112793-1.7197266-3.8295898-3.8330078-3.8295898   C145.7265625,79.3745117,144.0078125,81.0913086,144.0078125,83.2041016z"></path><path d="M60.012207,103.3486328c0-2.1152344-1.7172852-3.8349609-3.8300781-3.8349609   c-2.1152344,0-3.8344727,1.7197266-3.8344727,3.8349609c0,2.1132813,1.7192383,3.8320313,3.8344727,3.8320313   C58.2949219,107.1806641,60.012207,105.4619141,60.012207,103.3486328z"></path><path d="M64.203125,83.2041016c0-2.112793-1.7192383-3.8295898-3.8344727-3.8295898   c-2.112793,0-3.8320313,1.7167969-3.8320313,3.8295898c0,2.1157227,1.7192383,3.8349609,3.8320313,3.8349609   C62.4838867,87.0390625,64.203125,85.3198242,64.203125,83.2041016z"></path></g></svg>