<svg height='100px' width='100px'  fill="#FFB468" xmlns:dc="http://purl.org/dc/elements/1.1/" xmlns:cc="http://creativecommons.org/ns#" xmlns:rdf="http://www.w3.org/1999/02/22-rdf-syntax-ns#" xmlns:svg="http://www.w3.org/2000/svg" xmlns="http://www.w3.org/2000/svg" xmlns:sodipodi="http://sodipodi.sourceforge.net/DTD/sodipodi-0.dtd" xmlns:inkscape="http://www.inkscape.org/namespaces/inkscape" version="1.1" x="0px" y="0px" viewBox="0 0 100 100"><g transform="translate(0,-952.36218)"><path style="font-size:medium;font-style:normal;font-variant:normal;font-weight:normal;font-stretch:normal;text-indent:0;text-align:start;text-decoration:none;line-height:normal;letter-spacing:normal;word-spacing:normal;text-transform:none;direction:ltr;block-progression:tb;writing-mode:lr-tb;text-anchor:start;baseline-shift:baseline;opacity:1;color:#000000;fill:#FFB468;fill-opacity:1;stroke:none;stroke-width:2;marker:none;visibility:visible;display:inline;overflow:visible;enable-background:accumulate;font-family:Sans;-inkscape-font-specification:Sans" d="m 50,962.36218 c -2.879146,0 -5.173515,2.10297 -5.5,4.78125 l -23.59375,0.0625 0,-2.09375 a 1.0001,1.0001 0 0 0 -1,-1 l -6.84375,0 a 1.0001,1.0001 0 0 0 -0.21875,0 1.0001,1.0001 0 0 0 -0.78125,1 l 0,6.875 a 1.0001,1.0001 0 0 0 1,1 l 6.84375,0 a 1.0001,1.0001 0 0 0 1,-1 l 0,-2.78125 17.0625,-0.0312 c -11.254079,4.52565 -19.305381,14.9191 -21.5,27.625 C 13.406038,996.84993 11,999.28304 11,1002.2372 l 0,0.3125 c 0,2.9852 2.453856,5.4375 5.5625,5.4375 3.108644,0 5.59375,-2.4824 5.59375,-5.5938 0,-2.44955 -1.546421,-4.51583 -3.71875,-5.28117 2.464641,-14.21596 12.495,-25.37217 26.125,-27.90625 0.523661,2.45468 2.728267,4.3125 5.4375,4.3125 2.674198,0 4.846458,-1.8183 5.40625,-4.3125 13.645137,2.52338 23.689813,13.67993 26.15625,27.90625 -2.172329,0.76534 -3.71875,2.83162 -3.71875,5.28117 0,3.1114 2.485105,5.5938 5.59375,5.5938 3.108644,0 5.5625,-2.4523 5.5625,-5.4375 l 0,-0.3125 c 0,-2.95416 -2.406038,-5.38727 -5.46875,-5.43747 -2.19462,-12.7059 -10.245923,-23.09935 -21.5,-27.625 l 17.0625,0.0312 0,2.78125 a 1.0001,1.0001 0 0 0 1,1 l 6.84375,0 a 1.0001,1.0001 0 0 0 1,-1 l 0,-6.875 a 1.0001,1.0001 0 0 0 -0.78125,-1 1.0001,1.0001 0 0 0 -0.21875,0 l -6.84375,0 a 1.0001,1.0001 0 0 0 -1,1 l 0,2.09375 L 55.5,967.14343 c -0.376301,-2.72475 -2.660912,-4.78125 -5.5,-4.78125 z m 0,2 c 2.098874,0 3.5625,1.45734 3.5625,3.5625 0,2.10516 -1.463626,3.59375 -3.5625,3.59375 -2.098871,0 -3.5625,-1.52388 -3.5625,-3.4375 l 0,-0.3125 c 0,-1.91362 1.463629,-3.40625 3.5625,-3.40625 z m -35.9375,1.75 4.84375,0 0,4.875 -4.84375,0 0,-4.875 z m 67.03125,0 4.84375,0 0,4.875 -4.84375,0 0,-4.875 z m -31.1875,12.375 a 1.0001,1.0001 0 0 0 -0.78125,0.53125 l -19.6875,37.84377 a 1.0001,1.0001 0 0 0 -0.0625,0.8125 l 5.875,14.9687 0,7.7188 -1.3125,0 a 1.0001,1.0001 0 0 0 -0.21875,0 1.0059637,1.0059637 0 1 0 0.21875,2 l 32.125,0 a 1.0001,1.0001 0 1 0 0,-2 l -28.8125,0 0,-7.9063 a 1.0001,1.0001 0 0 0 -0.0625,-0.375 L 31.40625,1017.3934 50,981.64343 l 18.59375,35.74997 -5.78125,14.6875 a 1.0040292,1.0040292 0 1 0 1.875,0.7188 l 5.9375,-15.125 a 1.0001,1.0001 0 0 0 -0.0625,-0.8125 L 50.875,979.01843 a 1.0001,1.0001 0 0 0 -0.96875,-0.53125 z M 49.875,992.26843 A 1.0001,1.0001 0 0 0 49,993.29968 l 0,19.59372 c -2.585444,0.4824 -4.53125,2.8015 -4.53125,5.5313 0,3.0705 2.4661,5.5312 5.53125,5.5312 3.06515,0 5.53125,-2.4607 5.53125,-5.5312 0,-2.7298 -1.945806,-5.0489 -4.53125,-5.5313 l 0,-19.59372 a 1.0001,1.0001 0 0 0 -1.125,-1.03125 z m -33.3125,6.53125 c 2.098874,0 3.59375,1.48862 3.59375,3.59372 0,2.1051 -1.494876,3.5938 -3.59375,3.5938 -2.098872,0 -3.5625,-1.5239 -3.5625,-3.4375 l 0,-0.3125 c 0,-1.9136 1.463628,-3.43752 3.5625,-3.43752 z m 66.875,0 c 2.098874,0 3.5625,1.52392 3.5625,3.43752 l 0,0.3125 c 0,1.9136 -1.463626,3.4375 -3.5625,3.4375 -2.098875,0 -3.59375,-1.4887 -3.59375,-3.5938 0,-2.1051 1.494875,-3.59372 3.59375,-3.59372 z M 50,1014.7997 c 1.985213,0 3.625,1.6364 3.625,3.625 0,1.9887 -1.639787,3.5312 -3.625,3.5312 -1.985213,0 -3.625,-1.5425 -3.625,-3.5312 0,-1.9886 1.639787,-3.625 3.625,-3.625 z"></path></g></svg>